HIERARCHY
ROOT Hips
{
	OFFSET 0.000000 0.000000 0.000000
	CHANNELS 6 Xposition Yposition Zposition Zrotation Yrotation Xrotation
	JOINT LeftHip
	{
		OFFSET 0.080783 0.005359 -0.054022
		CHANNELS 3 Zrotation Yrotation Xrotation
		JOINT LeftKnee
		{
			OFFSET 0.001666 0.009362 -0.417793
			CHANNELS 3 Zrotation Yrotation Xrotation
			JOINT LeftFoot
			{
				OFFSET -0.001659 0.017971 -0.401351
				CHANNELS 3 Zrotation Yrotation Xrotation
				JOINT LeftToe
				{
					OFFSET 0.011334 -0.103219 -0.041164
					CHANNELS 3 Zrotation Yrotation Xrotation
					End Site
					{
						OFFSET 0.000000 -0.150000 -0.000000
					}
				}
			}
		}
	}
	JOINT RightHip
	{
		OFFSET -0.080781 0.005359 -0.054025
		CHANNELS 3 Zrotation Yrotation Xrotation
		JOINT RightKnee
		{
			OFFSET 0.001666 0.009362 -0.417793
			CHANNELS 3 Zrotation Yrotation Xrotation
			JOINT RightFoot
			{
				OFFSET 0.001659 0.016472 -0.401472
				CHANNELS 3 Zrotation Yrotation Xrotation
				JOINT RightToe
				{
					OFFSET  -0.011334 -0.104165 -0.041168
					CHANNELS 3 Zrotation Yrotation Xrotation
					End Site
					{
						OFFSET 0.000000 -0.150000 0.000000
					}
				}
			}
		}
	}
	JOINT Spine
	{
		OFFSET -0.000000 0.011802 0.097172
		CHANNELS 3 Zrotation Yrotation Xrotation
		JOINT Spine1
		{
			OFFSET -0.000000 0.013769 0.113368
			CHANNELS 3 Zrotation Yrotation Xrotation
			JOINT Spine2
			{
				OFFSET -0.000000 0.015737 0.129563
				CHANNELS 3 Zrotation Yrotation Xrotation
				JOINT Neck
				{
					OFFSET -0.000000 0.017704 0.145760
					CHANNELS 3 Zrotation Yrotation Xrotation
					JOINT Head
					{
						OFFSET  0.000000 -0.019722 0.067202
						CHANNELS 3 Zrotation Yrotation Xrotation
						End Site
						{
							OFFSET 0.0 0.000000 0.200000
						}
					}
				}
				JOINT LeftShoulder
				{
					OFFSET 0.061401 0.017995 0.098779
					CHANNELS 3 Zrotation Yrotation Xrotation
					JOINT LeftArm
					{
						OFFSET 0.115589 0.000581 -0.000000
						CHANNELS 3 Zrotation Yrotation Xrotation
						JOINT LeftForearm
						{
							OFFSET 0.255608 -0.000000 -0.000000
							CHANNELS 3 Zrotation Yrotation Xrotation
							JOINT LeftHand
							{
								OFFSET 0.234041 -0.000000 -0.000000
								CHANNELS 3 Zrotation Yrotation Xrotation
								End Site
								{
									OFFSET 0.200000 0.000000 0.000000
								}
							}
						}
					}
				}
				JOINT RightShoulder
				{
					OFFSET -0.061401 0.017414 0.098778
					CHANNELS 3 Zrotation Yrotation Xrotation
					JOINT RightArm
					{
						OFFSET -0.115589 -0.000581 -0.000000
						CHANNELS 3 Zrotation Yrotation Xrotation
						JOINT RightForearm
						{
							OFFSET -0.255711 -0.000000 0.000000
							CHANNELS 3 Zrotation Yrotation Xrotation
							JOINT RightHand
							{
								OFFSET -0.234017 -0.000000 0.000000
								CHANNELS 3 Zrotation Yrotation Xrotation
								End Site
								{
									OFFSET -0.200000 -0.000000 0.000000
								}
							}
						}
					}
				}
			}
		}
	}
}
MOTION
Frames: 14
Frame Time: 0.033333
0.182998 0.646858 1.240106 -17.553880 -1.669109 -0.404640 4.374951 0.879693 -29.850220 5.561988 3.924822 52.389140 22.832475 -5.221242 -10.720081 0.130995 -0.048015 -0.260802 0.137318 8.489851 -3.495869 -0.141295 -2.317418 21.974882 -17.571850 -6.481106 21.075599 0.453809 0.479093 0.298824 0.642836 -2.458979 24.723713 -1.580693 -2.110981 -0.794599 -1.229178 1.708209 3.046589 -16.175954 -2.445087 17.983944 -14.077685 -2.084810 21.044036 -3.377765 -4.832452 2.888608 -37.728394 84.257096 -27.986590 -35.256781 -8.193639 15.062660 -1.014644 -5.993536 7.185861 6.003476 7.772879 -2.577641 48.358547 -73.926943 -35.689395 55.820560 16.672583 8.323779 5.705228 8.792699 -1.616710
0.179618 0.661949 1.218283 -17.280162 -2.332561 -0.519561 4.748023 0.616598 -34.424554 7.287933 3.389587 59.174160 22.676918 -5.091550 -11.393216 0.161374 -0.017631 -0.399580 -0.007413 8.694047 -1.216732 0.815622 -2.329205 16.454051 -17.985942 -6.652737 23.790485 0.466873 0.485266 0.335299 1.653002 -2.605233 25.072645 -1.609928 -1.630112 -0.717398 -0.828559 1.883993 3.059449 -16.506077 -2.354456 17.476081 -14.101894 -2.292658 20.414130 -2.976912 -4.791364 3.067617 -27.632920 84.673367 -18.361686 -35.243286 -8.126253 15.444538 -0.969611 -5.627877 7.059479 6.023174 7.876297 -2.910562 48.151167 -72.412336 -36.149980 55.661993 16.804215 7.837785 5.812346 9.079099 -1.741964
0.174917 0.679588 1.195742 -16.839047 -2.797355 -0.857569 5.352770 -0.108911 -39.032046 8.676243 2.906811 65.500824 22.144238 -4.734709 -11.144056 0.196328 0.034207 -0.620987 -0.299223 8.304710 -1.006895 1.067602 -2.406303 15.970029 -17.943267 -6.026844 19.089266 0.472861 0.420885 0.455807 2.369009 -2.779062 25.975023 -1.632567 -1.263758 -0.852783 -0.497115 1.983757 2.959916 -16.656379 -2.236544 16.798838 -14.102460 -2.468845 19.935782 -2.800330 -4.655562 3.151540 -19.951661 84.745258 -11.185239 -35.358120 -8.111158 15.764423 -1.015728 -5.338696 6.737894 6.268445 7.868874 -3.226234 47.835082 -71.097968 -36.392911 54.908422 16.806557 7.351847 5.762203 9.301230 -1.897277
0.169795 0.698021 1.175516 -16.345297 -3.152916 -1.252894 6.085406 -0.946202 -43.569648 9.905449 2.413475 71.524589 21.466496 -4.289714 -10.561619 0.225181 0.089406 -0.880892 -0.652304 7.720069 -1.204125 1.037312 -2.480842 16.323497 -17.940876 -5.095087 12.899116 0.479079 0.329655 0.577934 2.916481 -2.941212 27.024945 -1.662997 -0.979640 -1.052538 -0.229070 2.032196 2.793128 -16.647155 -2.123309 16.119399 -14.058950 -2.599103 19.575191 -2.764819 -4.503008 3.178409 -14.603937 84.587098 -6.354762 -35.525179 -8.137155 15.970568 -1.138785 -5.105566 6.321382 6.598698 7.772441 -3.479686 47.470596 -70.072367 -36.476038 53.848516 16.719342 6.892350 5.666713 9.457162 -2.026479
0.164251 0.717248 1.157605 -15.799486 -3.399153 -1.705502 6.962840 -1.886372 -48.056328 10.948711 1.922432 77.214643 20.650466 -3.755948 -9.647438 0.247855 0.147967 -1.179299 -1.059131 6.940508 -1.807121 0.722232 -2.552456 17.516838 -18.063131 -3.850181 5.248029 0.485438 0.211578 0.701681 3.294132 -3.091540 28.225745 -1.701267 -0.777741 -1.316660 -0.024306 2.029320 2.559124 -16.479163 -2.014653 15.437762 -13.972227 -2.683264 19.331898 -2.870560 -4.333709 3.148260 -11.904219 84.257059 -4.183601 -35.744576 -8.204231 16.062830 -1.338599 -4.928444 5.809910 7.014250 7.586944 -3.670807 47.042461 -69.322567 -36.381418 52.484293 16.540708 6.457989 5.526207 9.546837 -2.129468
0.158199 0.735957 1.148906 -15.411359 -3.587800 -2.052315 7.400412 -0.901791 -52.505306 8.344813 1.500716 82.617297 19.488075 -3.100994 -8.093615 0.244893 0.169921 -1.514359 -1.458566 6.201686 -2.380936 0.329909 -2.670890 17.960614 -18.488706 -2.708014 0.318931 0.497773 0.110710 0.719941 3.641230 -3.214701 29.283945 -1.785492 -0.665471 -1.611601 0.107603 1.987805 2.265654 -16.114075 -1.999087 14.850326 -13.858048 -2.680677 19.178943 -3.154439 -4.177471 3.091690 -11.176507 83.782877 -3.944396 -35.745856 -8.321068 15.864718 -1.587550 -4.742275 5.242685 7.515399 7.278361 -3.684764 46.647000 -69.073701 -36.166439 50.934833 16.208653 6.145676 5.470853 9.533626 -2.090688
0.155585 0.754685 1.142664 -14.874399 -3.418458 -2.227136 7.619290 -0.739858 -54.758859 6.473513 1.561703 86.489649 18.944186 -2.562370 -6.653228 0.237327 0.170729 -1.713678 -1.577356 5.525137 -4.101117 -0.489200 -2.843716 19.856609 -18.788098 -2.019451 -2.442887 0.479682 0.040842 0.692805 3.186982 -3.368340 29.904895 -1.967427 -0.965543 -1.809467 -0.129087 1.802688 2.008852 -15.789132 -1.939507 14.824971 -13.819298 -2.672532 19.190519 -3.838368 -4.239789 2.869308 -20.572803 83.322513 -12.926360 -36.463582 -8.479366 15.837520 -1.802896 -4.846643 4.660836 7.668770 7.081743 -3.366223 44.466010 -69.711186 -34.259570 49.125776 15.781837 5.877067 5.351248 9.308820 -2.185476
0.156408 0.773432 1.138879 -14.189870 -2.891091 -2.229894 7.635163 -1.392577 -54.691403 5.498221 1.957309 88.531659 19.008696 -2.140942 -5.324842 0.225273 0.150393 -1.777240 -1.397911 4.911539 -6.970067 -1.762723 -3.065704 23.230351 -18.890623 -1.784609 -3.047792 0.431230 0.001973 0.620273 1.928777 -3.551196 30.081548 -2.245753 -1.677986 -1.910470 -0.733429 1.473909 1.788714 -15.502283 -1.836192 15.361631 -13.855891 -2.658844 19.366657 -4.920904 -4.520226 2.480659 -37.444387 82.424731 -28.482774 -37.899609 -8.678304 15.977697 -1.980370 -5.241823 4.063935 7.473956 6.997175 -2.715483 40.111534 -71.196483 -30.281935 47.058592 15.258115 5.650171 5.168859 8.872608 -2.413604
0.156788 0.789548 1.135971 -13.697213 -2.514915 -1.948445 7.221953 -2.158848 -52.264227 4.485794 1.950379 90.126465 19.618341 -2.041721 -4.492727 0.195706 0.075133 -1.732185 -1.008303 4.408104 -8.962359 -2.438279 -3.111996 24.786290 -18.705879 -1.836488 -3.060391 0.381655 0.032605 0.478008 0.927710 -3.782289 29.610902 -2.515017 -2.323288 -1.948722 -1.267987 1.210323 1.678425 -15.327047 -1.688484 15.980426 -13.858887 -2.727506 19.363340 -5.717968 -4.880687 2.131741 -50.853695 81.565104 -40.496425 -39.435477 -8.845200 16.305979 -2.063685 -5.530679 3.597945 7.065483 7.078627 -2.029649 35.285539 -72.655600 -25.830018 45.497739 14.746446 5.569466 5.056186 8.462000 -2.622613
0.157405 0.805229 1.132353 -13.130582 -2.076562 -1.562296 6.914168 -3.599349 -47.751682 4.627084 1.658796 90.006778 20.683117 -2.099940 -3.647327 0.150071 -0.024025 -1.652314 -0.564305 3.912447 -11.127659 -3.206732 -3.103935 26.515068 -18.444696 -1.838605 -3.340435 0.328330 0.083123 0.280410 -0.247258 -4.036922 28.811531 -2.777519 -2.996606 -1.953192 -1.861401 0.921601 1.581654 -15.089564 -1.537473 16.625884 -13.759622 -2.792968 19.336127 -6.518549 -5.363493 1.755408 -62.386595 80.208036 -50.617090 -41.288113 -9.035525 16.655906 -2.199688 -5.817317 3.119298 6.543907 7.287343 -1.301386 28.926547 -74.099156 -19.888185 43.948890 14.217188 5.521298 4.907600 8.000858 -2.878369
0.158259 0.820476 1.128024 -12.488205 -1.576001 -1.071548 6.608341 -5.762950 -41.368990 5.871680 1.090892 88.232585 22.199350 -2.315434 -2.787516 0.088231 -0.147080 -1.537632 -0.062691 3.425098 -13.469760 -4.069786 -3.040933 28.420116 -18.107294 -1.790942 -3.888004 0.271080 0.153526 0.027481 -1.587447 -4.317054 27.684581 -3.033888 -3.698023 -1.923875 -2.513724 0.607737 1.498382 -14.789320 -1.383254 17.298091 -13.558099 -2.855225 19.284915 -7.321448 -5.968790 1.351512 -71.747220 78.412281 -58.542394 -43.459762 -9.248498 17.022913 -2.388318 -6.101716 2.627931 5.911578 7.623229 -0.530170 20.612679 -75.435704 -12.039139 42.411210 13.670610 5.505672 4.724063 7.489255 -3.180787
0.160466 0.834756 1.120425 -11.579157 -0.966985 -0.581431 6.325228 -6.041982 -33.314077 3.892723 1.862064 82.836969 22.273349 -1.780553 0.391841 0.031670 -0.241168 -1.405141 0.341059 3.101283 -16.228717 -5.298540 -2.901155 31.290403 -17.817692 -1.645513 -5.141885 0.218162 0.205148 -0.163256 -3.149059 -4.567110 26.271394 -3.292022 -4.396588 -1.816465 -3.223099 0.262838 1.395884 -14.365461 -1.219557 17.995995 -13.280038 -2.891435 19.244871 -8.113678 -6.666098 0.979224 -77.822015 76.207109 -63.267928 -45.973548 -9.430444 17.435218 -2.643051 -6.417611 2.136341 5.182105 8.036108 0.268007 10.283429 -76.284774 -2.302194 40.796748 13.164531 5.419771 4.443992 6.915236 -3.594516
0.163290 0.848935 1.111415 -10.544139 -0.315937 -0.138905 6.172766 -6.411995 -25.558428 1.953381 2.644132 75.864002 22.176234 -1.085698 3.883224 -0.017299 -0.310557 -1.277432 0.669535 2.895743 -19.143744 -6.714026 -2.711995 34.554842 -17.619729 -1.470952 -6.470577 0.175505 0.240494 -0.283004 -4.736499 -4.794229 24.849700 -3.562760 -5.074987 -1.674485 -3.949862 -0.074232 1.272642 -13.917940 -1.062758 18.680853 -13.012918 -2.924058 19.250696 -8.864995 -7.371464 0.636154 -82.125236 73.902234 -66.246383 -48.500990 -9.579270 17.864876 -2.898518 -6.745196 1.652621 4.422081 8.437600 1.056018 -0.840064 -76.674367 8.179204 39.135670 12.676384 5.283435 4.136651 6.331203 -4.045320
0.166731 0.863011 1.100995 -9.383211 0.377122 0.256166 6.116737 -6.880535 -17.986272 0.100292 3.411925 67.679306 21.927195 -0.232118 7.696975 -0.058584 -0.355246 -1.154503 0.914270 2.807428 -22.223814 -8.332629 -2.467825 38.236218 -17.514899 -1.267387 -7.874843 0.143228 0.259563 -0.331762 -6.351028 -4.997883 23.418250 -3.846690 -5.733238 -1.497794 -4.693900 -0.403463 1.128642 -13.446779 -0.912873 19.352569 -12.756674 -2.953106 19.302416 -9.576003 -8.085002 0.322290 -85.281319 71.539512 -68.108784 -51.043297 -9.695133 18.310989 -3.154679 -7.084476 1.176703 3.630894 8.827560 1.833907 -12.059645 -76.579924 18.707701 37.428229 12.205704 5.096615 3.802685 5.737149 -4.533248
